<?xml version="1.0" standalone="no"?>
<!DOCTYPE svg PUBLIC "-//W3C//DTD SVG 20010904//EN"
 "http://www.w3.org/TR/2001/REC-SVG-20010904/DTD/svg10.dtd">
<svg version="1.0" xmlns="http://www.w3.org/2000/svg"
 width="400.000000pt" height="400.000000pt" viewBox="0 0 400.000000 400.000000"
 preserveAspectRatio="xMidYMid meet">
<metadata>
Created by potrace 1.14, written by Peter Selinger 2001-2017
</metadata>
<g transform="translate(0.000000,400.000000) scale(0.100000,-0.100000)"
fill="#000000" stroke="none">
<path d="M1869 3416 c-2 -2 -26 -7 -54 -10 -194 -22 -433 -110 -595 -220 -25
-16 -46 -33 -48 -38 -2 -4 -10 -8 -18 -8 -8 0 -14 -4 -14 -8 0 -4 -12 -15 -27
-24 -84 -51 -274 -269 -339 -388 -10 -19 -21 -37 -24 -40 -15 -15 -83 -170
-109 -250 -48 -147 -64 -257 -65 -430 -1 -177 5 -232 35 -352 22 -89 67 -219
80 -232 5 -6 9 -16 9 -23 0 -23 100 -191 163 -275 55 -73 222 -248 238 -248 3
0 17 -10 30 -21 79 -71 280 -178 414 -222 174 -58 263 -71 460 -72 136 0 170
3 270 20 25 5 156 39 190 49 6 2 12 4 15 4 6 1 117 49 150 65 14 7 28 16 32
22 4 5 8 6 8 2 0 -5 13 1 29 12 16 12 34 21 39 21 6 0 17 6 24 12 7 7 39 30
70 51 212 143 397 377 502 634 29 71 74 221 82 273 3 19 8 46 11 60 2 14 6 93
8 175 4 212 -25 379 -95 555 -31 78 -98 209 -126 247 -13 17 -24 34 -24 37 0
7 -6 14 -86 111 -204 248 -489 417 -817 486 -72 15 -148 23 -258 25 -86 2
-158 2 -160 0z"/>
</g>
</svg>
